<svg width="45" height="48" viewBox="0 0 45 48" fill="none" xmlns="http://www.w3.org/2000/svg">
<path d="M44.8265 18.9222V28.1937C44.8058 28.6012 44.5634 28.9509 44.2182 29.1241C44.1951 29.1356 44.172 29.146 44.1489 29.1553L32.2087 34.5909L27.1851 36.8777C27.1666 36.888 27.1481 36.8961 27.1285 36.903C26.9992 36.9573 26.8572 36.9873 26.7083 36.9873C26.1 36.9873 25.6071 36.4933 25.6071 35.8849C25.6071 35.8307 25.6106 35.7776 25.6187 35.7268L25.6071 35.7314V30.6489C25.6071 30.6386 25.6071 30.6282 25.6083 30.6178C25.6187 30.1999 25.8634 29.8386 26.2154 29.662C26.2385 29.6505 26.2628 29.6389 26.2893 29.6285L32.2098 26.9343L37.2069 24.6603C37.2496 24.643 37.29 24.6246 37.3281 24.6038C37.6709 24.4168 37.9041 24.052 37.9041 23.6341C37.9041 23.2163 37.6547 22.8284 37.2923 22.6472C37.2704 22.6368 37.2473 22.6264 37.2242 22.616L32.2087 20.3328L26.2858 17.6375C26.2628 17.6282 26.2397 17.6178 26.2177 17.6063C26.1554 17.5751 26.0965 17.5393 26.0423 17.4966C25.7768 17.2969 25.606 16.9783 25.606 16.6193C25.606 16.5628 25.6094 16.5085 25.6187 16.4543L25.606 16.4589V11.3418H25.6083C25.6071 11.3314 25.6071 11.3187 25.606 11.306V11.156C25.6452 10.5823 26.1219 10.1298 26.7049 10.1298C26.8572 10.1298 27.0015 10.1609 27.1331 10.2163C27.1516 10.2244 27.1678 10.2302 27.1839 10.2394L32.2098 12.5261L44.1501 17.9618C44.1732 17.9711 44.1963 17.9814 44.2194 17.993C44.5645 18.1661 44.8081 18.5159 44.8277 18.9234L44.8265 18.9222Z" fill="#1D1E1C"/>
<path d="M19.5733 9.30689V18.4976C19.5733 18.927 19.3286 19.2998 18.9684 19.4799L18.9003 19.5122C18.9003 19.5122 18.8922 19.5157 18.8876 19.5168L10.0548 23.5373L1.95606 27.2242C1.93875 27.2323 1.92374 27.2381 1.90758 27.2462C1.77599 27.3016 1.63054 27.3327 1.47817 27.3327C1.3258 27.3327 1.18498 27.3027 1.05454 27.2485C1.02914 27.2381 1.00375 27.2265 0.980662 27.2138C0.642446 27.043 0.40581 26.7048 0.378107 26.3054V20.9182C0.403502 20.5326 0.629749 20.2002 0.951804 20.0247C0.956421 20.0224 0.961038 20.0201 0.965655 20.0178L1.07532 19.967L1.64209 19.7096H1.64324L12.0102 14.9896C12.0287 14.9815 12.046 14.9746 12.0644 14.9654C12.4304 14.7864 12.6832 14.4113 12.6832 13.975C12.6832 13.5386 12.45 13.1935 12.1048 13.0065C12.1037 13.0053 12.1025 13.0053 12.1002 13.0042C12.0587 12.9822 12.016 12.9626 11.9721 12.9465C11.9686 12.9441 11.9629 12.943 11.9594 12.9418L1.05108 7.97596C1.02914 7.96672 1.00837 7.95749 0.988743 7.9471C0.64591 7.77626 0.404657 7.43458 0.376953 7.03403V1.49676C0.4162 0.923064 0.892933 0.468262 1.47586 0.468262C1.619 0.468262 1.75752 0.494811 1.88219 0.545601L1.98954 0.594084C1.98954 0.594084 1.99762 0.597547 2.00223 0.60101L18.8992 8.29224C18.9165 8.29917 18.9326 8.30609 18.9476 8.31417C19.3182 8.49194 19.5721 8.87055 19.5721 9.30689H19.5733Z" fill="#1D1E1C"/>
<path d="M19.5736 28.5808V37.768C19.5736 38.2055 19.3196 38.583 18.9491 38.7608C18.9341 38.7688 18.9168 38.7746 18.9006 38.7827L1.95984 46.4947C1.94137 46.5039 1.92521 46.512 1.90674 46.5189C1.77515 46.5744 1.6297 46.6055 1.47733 46.6055C0.894399 46.6055 0.416511 46.1519 0.378418 45.5793V40.2094C0.399196 39.8147 0.626596 39.4741 0.953269 39.2964C0.954423 39.2964 0.954424 39.2952 0.954424 39.2952L1.08255 39.2375L12.0024 34.2682C12.0232 34.2589 12.044 34.2485 12.0647 34.2393C12.4284 34.0592 12.6788 33.6829 12.6788 33.25C12.6788 32.8172 12.4237 32.4351 12.0544 32.2573L2.83712 28.0614L11.4126 24.1575L18.8995 27.565C18.9203 27.5743 18.941 27.5835 18.9607 27.5939C19.3254 27.7728 19.5759 28.148 19.5759 28.582L19.5736 28.5808Z" fill="#1D1E1C"/>
<path d="M32.2072 37.5424V44.5238C32.2072 44.9543 31.959 45.3272 31.6 45.5096L31.5354 45.5396C31.5354 45.5396 31.5273 45.5419 31.525 45.543L27.1998 47.5112L27.134 47.5423C27.134 47.5423 27.127 47.5446 27.1236 47.5458C26.9943 47.5989 26.8535 47.6289 26.7057 47.6289C26.0974 47.6289 25.6045 47.1348 25.6045 46.5277V39.5452C25.6045 39.1712 25.7915 38.8399 26.0778 38.6414C26.1251 38.6079 26.1759 38.5779 26.229 38.5525C26.244 38.5444 26.2613 38.5386 26.2775 38.5305L30.6269 36.5509C30.7712 36.4816 30.934 36.4424 31.106 36.4424C31.7143 36.4424 32.2072 36.9353 32.2072 37.5436V37.5424Z" fill="#1D1E1C"/>
</svg>
