<svg width="159" height="33" viewBox="0 0 159 33" fill="none" xmlns="http://www.w3.org/2000/svg">
<g clip-path="url(#clip0_2_2528)">
<path d="M47.0864 14.3741V7.64283H47.0036L42.4844 14.3741H40.478V4.42017H42.5546V11.1589H42.6373L47.1566 4.42017H49.1629V14.3741H47.0864Z" fill="#1D1E1C"/>
<path d="M55.2072 14.374V11.347H52.3657V14.374H50.3594V6.98071H52.3657V9.82218H55.2072V6.98071H57.2135V14.3765H55.2072V14.374Z" fill="#1D1E1C"/>
<path d="M61.971 14.4844C60.7396 14.4568 59.7616 14.1057 59.0418 13.4285C58.322 12.7514 57.9634 11.8335 57.9634 10.6698C57.9634 9.50617 58.3245 8.61085 59.0493 7.93121C59.7741 7.25156 60.7472 6.89544 61.971 6.86785V4.6333H63.9372V6.86785C65.1661 6.89544 66.1392 7.24655 66.8589 7.92368C67.5787 8.60082 67.9373 9.51621 67.9373 10.6749C67.9373 11.8335 67.5762 12.7339 66.8514 13.416C66.1266 14.0982 65.1561 14.4543 63.9372 14.4819V16.7866H61.971V14.4819V14.4844ZM61.9911 12.9596V8.38514C61.3792 8.40269 60.8951 8.61587 60.5365 9.01964C60.1779 9.42341 59.9973 9.97515 59.9973 10.6749C59.9973 11.3746 60.1754 11.9238 60.5315 12.3276C60.8876 12.7288 61.3741 12.9395 61.9911 12.9596ZM65.9084 10.6774C65.9084 9.97265 65.7304 9.4209 65.3743 9.02215C65.0181 8.62088 64.5316 8.41022 63.9147 8.38765V12.9621C64.5216 12.9445 65.0056 12.7313 65.3667 12.3276C65.7279 11.9238 65.9084 11.3746 65.9084 10.6799V10.6774Z" fill="#1D1E1C"/>
<path d="M74.7638 13.5087C74.1067 14.1908 73.2139 14.5319 72.0878 14.5319C70.9618 14.5319 70.0689 14.1883 69.4119 13.5037C68.7548 12.819 68.4263 11.8735 68.4263 10.6697C68.4263 9.46592 68.7573 8.5405 69.4219 7.85082C70.0865 7.16365 70.9743 6.82007 72.0878 6.82007C73.2013 6.82007 74.0941 7.16365 74.7562 7.85082C75.4183 8.53799 75.7494 9.47845 75.7494 10.6697C75.7494 11.861 75.4208 12.8265 74.7638 13.5087ZM72.0878 12.9945C72.5844 12.9945 72.9781 12.7914 73.2665 12.3876C73.555 11.9839 73.7004 11.4121 73.7004 10.6772C73.7004 9.94242 73.555 9.38315 73.2665 8.97436C72.9756 8.56558 72.5844 8.35993 72.0878 8.35993C71.5913 8.35993 71.1975 8.56558 70.9041 8.97436C70.6107 9.38315 70.4652 9.95245 70.4652 10.6772C70.4652 11.402 70.6107 11.9839 70.8991 12.3876C71.19 12.7914 71.5837 12.9945 72.0853 12.9945H72.0878Z" fill="#1D1E1C"/>
<path d="M80.8104 6.86286C81.7484 6.86286 82.4882 7.20143 83.0274 7.87606C83.5666 8.55319 83.8374 9.48614 83.8374 10.6774C83.8374 11.8687 83.5716 12.7966 83.0374 13.4737C82.5032 14.1509 81.7734 14.4919 80.843 14.4919C80.3138 14.4919 79.8474 14.3715 79.4461 14.1308C79.0448 13.89 78.7439 13.5565 78.5457 13.1351H78.5031V16.7917H76.4893V6.98073H78.4755V8.2698H78.5182C78.7213 7.82841 79.0197 7.48231 79.4185 7.23403C79.8173 6.98575 80.2787 6.86035 80.8079 6.86035L80.8104 6.86286ZM80.1333 12.8718C80.6348 12.8718 81.0336 12.6737 81.3295 12.2774C81.6255 11.8812 81.7734 11.3495 81.7734 10.6774C81.7734 10.0053 81.6255 9.47109 81.3295 9.07233C81.0336 8.67357 80.6348 8.47545 80.1333 8.47545C79.6317 8.47545 79.2455 8.67608 78.947 9.07985C78.6486 9.48112 78.4981 10.0153 78.4981 10.6774C78.4981 11.3395 78.6461 11.8762 78.942 12.2749C79.2379 12.6737 79.6342 12.8718 80.1308 12.8718H80.1333Z" fill="#1D1E1C"/>
<path d="M86.4935 14.374H84.6025V6.98071H87.2108L89.1419 11.8084H89.1895L91.1206 6.98071H93.7012V14.3765H91.8103V9.43094H91.7626L89.8441 13.9627H88.4497L86.5386 9.43094H86.491V14.3765L86.4935 14.374Z" fill="#1D1E1C"/>
<path d="M96.9187 14.4919C96.2065 14.4919 95.6146 14.2838 95.1456 13.865C94.6767 13.4461 94.4409 12.9095 94.4409 12.2499C94.4409 11.5903 94.6892 11.0511 95.1858 10.6699C95.6823 10.2887 96.3921 10.0705 97.3175 10.0153L99.1809 9.90498V9.41593C99.1809 9.07486 99.0705 8.80902 98.8473 8.61591C98.6241 8.4228 98.3207 8.32499 97.9395 8.32499C97.5582 8.32499 97.2723 8.40775 97.0391 8.57328C96.8059 8.7388 96.6654 8.962 96.6153 9.24289H94.7745C94.8121 8.51559 95.1206 7.93125 95.7049 7.48735C96.2892 7.04345 97.0642 6.82275 98.0297 6.82275C98.9953 6.82275 99.7351 7.04847 100.307 7.49989C100.876 7.95131 101.162 8.5482 101.162 9.29305V14.3766H99.216V13.2455H99.1733C98.9702 13.6317 98.6617 13.9377 98.2479 14.1584C97.8341 14.3816 97.3902 14.4919 96.9162 14.4919H96.9187ZM97.5808 13.0374C98.0272 13.0374 98.4059 12.9069 98.7144 12.6486C99.0254 12.3878 99.1809 12.0618 99.1809 11.6655V11.1263L97.6209 11.2241C97.2448 11.2517 96.9538 11.347 96.7482 11.5075C96.5425 11.668 96.4422 11.8812 96.4422 12.142C96.4422 12.4179 96.5451 12.6361 96.7532 12.7966C96.9614 12.9571 97.2372 13.0374 97.5808 13.0374Z" fill="#1D1E1C"/>
<path d="M110.035 16.2926H108.199V14.374H102.163V6.98071H104.169V12.8517H106.908V6.98071H108.914V12.8517H110.032V16.2951L110.035 16.2926Z" fill="#1D1E1C"/>
<path d="M112.488 14.374H110.514V6.98071H112.488V11.6028H112.543L115.482 6.98071H117.456V14.3765H115.482V9.69929H115.427L112.488 14.3765V14.374Z" fill="#1D1E1C"/>
<path d="M124.543 13.5087C123.886 14.1908 122.993 14.5319 121.867 14.5319C120.741 14.5319 119.848 14.1883 119.191 13.5037C118.534 12.819 118.206 11.8735 118.206 10.6697C118.206 9.46592 118.537 8.5405 119.201 7.85082C119.866 7.16365 120.754 6.82007 121.867 6.82007C122.981 6.82007 123.873 7.16365 124.536 7.85082C125.198 8.53799 125.529 9.47845 125.529 10.6697C125.529 11.861 125.2 12.8265 124.543 13.5087ZM121.867 12.9945C122.364 12.9945 122.757 12.7914 123.046 12.3876C123.334 11.9839 123.48 11.4121 123.48 10.6772C123.48 9.94242 123.334 9.38315 123.046 8.97436C122.755 8.56558 122.364 8.35993 121.867 8.35993C121.371 8.35993 120.977 8.56558 120.683 8.97436C120.39 9.38315 120.244 9.95245 120.244 10.6772C120.244 11.402 120.39 11.9839 120.678 12.3876C120.969 12.7914 121.363 12.9945 121.865 12.9945H121.867Z" fill="#1D1E1C"/>
<path d="M131.122 14.374V11.347H128.28V14.374H126.274V6.98071H128.28V9.82218H131.122V6.98071H133.128V14.3765H131.122V14.374Z" fill="#1D1E1C"/>
<path d="M139.002 14.374V11.347H136.16V14.374H134.154V6.98071H136.16V9.82218H139.002V6.98071H141.008V14.3765H139.002V14.374Z" fill="#1D1E1C"/>
<path d="M142.033 14.374V6.98071H144.04V9.11996H145.482C146.354 9.11996 147.052 9.35571 147.568 9.8297C148.085 10.3037 148.343 10.9432 148.343 11.7483C148.343 12.5533 148.085 13.1928 147.568 13.6668C147.052 14.1408 146.354 14.3765 145.482 14.3765H142.033V14.374ZM145.151 10.5996H144.04V12.8693H145.151C145.514 12.8693 145.805 12.764 146.023 12.5558C146.241 12.3476 146.352 12.0718 146.352 11.7307C146.352 11.3896 146.241 11.1163 146.023 10.9106C145.805 10.705 145.514 10.5996 145.151 10.5996ZM149.068 14.374V6.98071H151.074V14.3765H149.068V14.374Z" fill="#1D1E1C"/>
<path d="M156.993 12.1118H158.841C158.731 12.8391 158.37 13.4234 157.755 13.8673C157.141 14.3112 156.379 14.5319 155.468 14.5319C154.332 14.5319 153.442 14.1908 152.795 13.5112C152.148 12.8315 151.827 11.8961 151.827 10.7098C151.827 9.5236 152.148 8.58313 152.792 7.87841C153.437 7.17368 154.302 6.82007 155.393 6.82007C156.484 6.82007 157.316 7.15613 157.951 7.82825C158.585 8.50037 158.904 9.3982 158.904 10.5243V11.1387H153.805V11.2641C153.805 11.7933 153.961 12.2221 154.272 12.5506C154.583 12.8792 154.992 13.0447 155.503 13.0447C155.872 13.0447 156.188 12.9619 156.456 12.7939C156.722 12.6259 156.903 12.4002 156.995 12.1143L156.993 12.1118ZM155.413 8.30977C154.977 8.30977 154.61 8.46024 154.32 8.75868C154.029 9.05713 153.863 9.43833 153.825 9.9048H156.963C156.94 9.4308 156.787 9.04709 156.504 8.75367C156.221 8.46024 155.857 8.31228 155.41 8.31228L155.413 8.30977Z" fill="#1D1E1C"/>
<path d="M52.1375 26.1562H53.9858C53.8755 26.8835 53.5143 27.4678 52.8999 27.9117C52.2855 28.3556 51.5231 28.5763 50.6127 28.5763C49.4766 28.5763 48.5863 28.2353 47.9392 27.5556C47.2922 26.876 46.9712 25.9405 46.9712 24.7543C46.9712 23.568 47.2922 22.6276 47.9367 21.9228C48.5813 21.2181 49.4465 20.8645 50.5374 20.8645C51.6284 20.8645 52.461 21.2006 53.0955 21.8727C53.73 22.5448 54.0485 23.4426 54.0485 24.5687V25.1831H48.9499V25.3085C48.9499 25.8377 49.1054 26.2665 49.4164 26.5951C49.7274 26.9236 50.1362 27.0891 50.6478 27.0891C51.0165 27.0891 51.3325 27.0064 51.6008 26.8383C51.8666 26.6703 52.0472 26.4446 52.14 26.1587L52.1375 26.1562ZM50.5575 22.3542C50.1211 22.3542 49.755 22.5047 49.4641 22.8031C49.1731 23.1016 49.0076 23.4828 48.97 23.9492H52.1074C52.0848 23.4752 51.9318 23.0915 51.6484 22.7981C51.3651 22.5047 51.0014 22.3567 50.555 22.3567L50.5575 22.3542Z" fill="#1D1E1C"/>
<path d="M57.6951 25.8525H57.6525L56.2656 28.418H54.1489L56.4662 24.7339L54.1615 21.0222H56.4311L57.7628 23.5201H57.8055L59.1171 21.0222H61.3115L59.0017 24.6788L61.2915 28.418H59.1046L57.6976 25.8525H57.6951Z" fill="#1D1E1C"/>
<path d="M66.6657 28.418V25.391H63.8242V28.418H61.8179V21.0222H63.8242V23.8637H66.6657V21.0222H68.672V28.418H66.6657Z" fill="#1D1E1C"/>
<path d="M75.7691 27.5531C75.1121 28.2353 74.2192 28.5763 73.0932 28.5763C71.9671 28.5763 71.0743 28.2327 70.4172 27.5481C69.7602 26.8634 69.4316 25.9179 69.4316 24.7141C69.4316 23.5103 69.7627 22.5849 70.4273 21.8953C71.0919 21.2081 71.9797 20.8645 73.0932 20.8645C74.2067 20.8645 75.0995 21.2081 75.7616 21.8953C76.4237 22.5824 76.7547 23.5229 76.7547 24.7141C76.7547 25.9054 76.4262 26.871 75.7691 27.5531ZM73.0932 27.039C73.5898 27.039 73.9835 26.8358 74.2719 26.4321C74.5603 26.0283 74.7058 25.4565 74.7058 24.7217C74.7058 23.9869 74.5603 23.4276 74.2719 23.0188C73.981 22.61 73.5898 22.4044 73.0932 22.4044C72.5966 22.4044 72.2029 22.61 71.9095 23.0188C71.616 23.4276 71.4706 23.9969 71.4706 24.7217C71.4706 25.4465 71.616 26.0283 71.9044 26.4321C72.1954 26.8358 72.5891 27.039 73.0907 27.039H73.0932Z" fill="#1D1E1C"/>
<path d="M79.9526 24.8747C79.92 25.4491 79.8548 25.9506 79.752 26.3745C79.6517 26.8008 79.5037 27.177 79.3106 27.5081C79.1175 27.8391 78.8617 28.0899 78.5407 28.2554C78.2221 28.4234 77.8384 28.5062 77.392 28.5062C77.1262 28.5062 76.9105 28.4736 76.75 28.4084V26.7105C76.8779 26.7431 77.0234 26.7582 77.1839 26.7582C77.5099 26.7582 77.7456 26.5826 77.8911 26.234C78.0366 25.8854 78.1268 25.3864 78.1645 24.7368L78.3726 21.0176H83.9803V28.4134H81.974V22.5374H80.0981L79.9526 24.8697V24.8747Z" fill="#1D1E1C"/>
<path d="M91.0753 27.5531C90.4182 28.2353 89.5254 28.5763 88.3993 28.5763C87.2733 28.5763 86.3805 28.2327 85.7234 27.5481C85.0663 26.8634 84.7378 25.9179 84.7378 24.7141C84.7378 23.5103 85.0688 22.5849 85.7334 21.8953C86.398 21.2081 87.2858 20.8645 88.3993 20.8645C89.5129 20.8645 90.4057 21.2081 91.0678 21.8953C91.7298 22.5824 92.0609 23.5229 92.0609 24.7141C92.0609 25.9054 91.7324 26.871 91.0753 27.5531ZM88.3993 27.039C88.8959 27.039 89.2896 26.8358 89.5781 26.4321C89.8665 26.0283 90.0119 25.4565 90.0119 24.7217C90.0119 23.9869 89.8665 23.4276 89.5781 23.0188C89.2871 22.61 88.8959 22.4044 88.3993 22.4044C87.9028 22.4044 87.509 22.61 87.2156 23.0188C86.9222 23.4276 86.7767 23.9969 86.7767 24.7217C86.7767 25.4465 86.9222 26.0283 87.2106 26.4321C87.5015 26.8358 87.8953 27.039 88.3968 27.039H88.3993Z" fill="#1D1E1C"/>
<path d="M97.9569 22.542H94.812V28.418H92.8057V21.0222H97.9594V22.5395L97.9569 22.542Z" fill="#1D1E1C"/>
<path d="M100.666 28.418H98.6919V21.0222H100.666V25.6443H100.721L103.66 21.0222H105.634V28.418H103.66V23.7408H103.605L100.666 28.418Z" fill="#1D1E1C"/>
<path d="M108.623 28.418H106.649V21.0222H108.623V25.6443H108.678L111.618 21.0222H113.591V28.418H111.618V23.7408H111.562L108.623 28.418Z" fill="#1D1E1C"/>
<path d="M39.9814 18.4646V20.1825H44.9396L42.858 22.2641V28.4185H44.9396V20.1825H47.8237V18.4646H39.9814Z" fill="#1D1E1C"/>
<g clip-path="url(#clip1_2_2528)">
<path d="M31.6227 12.9682V19.3552C31.6084 19.6359 31.4414 19.8768 31.2036 19.9961C31.1877 20.0041 31.1718 20.0112 31.1559 20.0176L22.9304 23.7622L19.4697 25.3375C19.4569 25.3446 19.4442 25.3502 19.4307 25.355C19.3416 25.3923 19.2438 25.413 19.1412 25.413C18.7222 25.413 18.3826 25.0727 18.3826 24.6536C18.3826 24.6162 18.385 24.5796 18.3906 24.5446L18.3826 24.5478V21.0466C18.3826 21.0394 18.3826 21.0323 18.3834 21.0251C18.3906 20.7372 18.5592 20.4883 18.8017 20.3667C18.8176 20.3587 18.8343 20.3508 18.8526 20.3436L22.9312 18.4876L26.3736 16.9211C26.403 16.9092 26.4308 16.8964 26.4571 16.8821C26.6932 16.7533 26.8539 16.502 26.8539 16.2142C26.8539 15.9263 26.6821 15.6591 26.4324 15.5343C26.4173 15.5271 26.4014 15.5199 26.3855 15.5128L22.9304 13.9399L18.8502 12.0831C18.8343 12.0767 18.8184 12.0696 18.8033 12.0616C18.7603 12.0402 18.7198 12.0155 18.6824 11.9861C18.4995 11.8485 18.3818 11.629 18.3818 11.3817C18.3818 11.3428 18.3842 11.3054 18.3906 11.268L18.3818 11.2712V7.74609H18.3834C18.3826 7.73893 18.3826 7.73019 18.3818 7.72144V7.61806C18.4089 7.22285 18.7373 6.91113 19.1389 6.91113C19.2438 6.91113 19.3432 6.9326 19.4339 6.97077C19.4466 6.97634 19.4577 6.98032 19.4689 6.98668L22.9312 8.56196L31.1567 12.3066C31.1726 12.3129 31.1885 12.3201 31.2044 12.328C31.4422 12.4473 31.61 12.6882 31.6235 12.969L31.6227 12.9682Z" fill="#1D1E1C"/>
<path d="M14.2261 6.3442V12.6756C14.2261 12.9714 14.0575 13.2282 13.8094 13.3523L13.7625 13.3745C13.7625 13.3745 13.7569 13.3769 13.7537 13.3777L7.66889 16.1474L2.08978 18.6873C2.07786 18.6928 2.06752 18.6968 2.05639 18.7024C1.96573 18.7405 1.86554 18.762 1.76057 18.762C1.65561 18.762 1.55859 18.7413 1.46873 18.704C1.45124 18.6968 1.43375 18.6889 1.41784 18.6801C1.18485 18.5624 1.02183 18.3294 1.00275 18.0543V14.3431C1.02024 14.0775 1.1761 13.8485 1.39796 13.7276C1.40114 13.726 1.40432 13.7244 1.4075 13.7228L1.48305 13.6879L1.87349 13.5105H1.87429L9.01596 10.259C9.02868 10.2534 9.04061 10.2486 9.05333 10.2423C9.30541 10.119 9.47956 9.86057 9.47956 9.55998C9.47956 9.2594 9.31893 9.02163 9.08116 8.89281C9.08037 8.89202 9.07957 8.89202 9.07798 8.89122C9.04936 8.87611 9.01993 8.86259 8.98971 8.85146C8.98733 8.84987 8.98335 8.84908 8.98097 8.84828L1.46635 5.42734C1.45124 5.42098 1.43693 5.41461 1.42341 5.40746C1.18723 5.28977 1.02104 5.05439 1.00195 4.77846V0.963893C1.02899 0.568679 1.35741 0.255371 1.75898 0.255371C1.85759 0.255371 1.95301 0.273661 2.03889 0.308649L2.11284 0.342049C2.11284 0.342049 2.11841 0.344434 2.12159 0.34682L13.7617 5.64522C13.7736 5.64999 13.7848 5.65477 13.7951 5.66033C14.0504 5.78279 14.2253 6.04362 14.2253 6.3442H14.2261Z" fill="#1D1E1C"/>
<path d="M14.2263 19.6217V25.9506C14.2263 26.252 14.0513 26.5121 13.7961 26.6345C13.7857 26.6401 13.7738 26.6441 13.7627 26.6496L2.09235 31.9623C2.07963 31.9687 2.0685 31.9743 2.05577 31.979C1.96512 32.0172 1.86492 32.0387 1.75996 32.0387C1.35838 32.0387 1.02917 31.7262 1.00293 31.3317V27.6325C1.01724 27.3605 1.1739 27.1259 1.39894 27.0035C1.39973 27.0035 1.39973 27.0027 1.39973 27.0027L1.488 26.9629L9.01057 23.5396C9.02489 23.5332 9.0392 23.5261 9.05351 23.5197C9.304 23.3957 9.47656 23.1364 9.47656 22.8382C9.47656 22.54 9.30082 22.2768 9.04636 22.1544L2.6967 19.2638L8.60423 16.5745L13.7619 18.9219C13.7762 18.9282 13.7905 18.9346 13.804 18.9418C14.0553 19.065 14.2279 19.3235 14.2279 19.6225L14.2263 19.6217Z" fill="#1D1E1C"/>
<path d="M22.9294 25.7957V30.605C22.9294 30.9016 22.7584 31.1585 22.5111 31.2841L22.4666 31.3048C22.4666 31.3048 22.461 31.3064 22.4594 31.3072L19.4798 32.663L19.4345 32.6845C19.4345 32.6845 19.4297 32.6861 19.4273 32.6869C19.3383 32.7234 19.2413 32.7441 19.1395 32.7441C18.7204 32.7441 18.3809 32.4038 18.3809 31.9855V27.1753C18.3809 26.9177 18.5097 26.6895 18.7069 26.5527C18.7395 26.5296 18.7745 26.509 18.8111 26.4915C18.8214 26.4859 18.8333 26.4819 18.8445 26.4764L21.8408 25.1126C21.9402 25.0649 22.0523 25.0378 22.1708 25.0378C22.5898 25.0378 22.9294 25.3774 22.9294 25.7965V25.7957Z" fill="#1D1E1C"/>
</g>
</g>
<defs>
<clipPath id="clip0_2_2528">
<rect width="158.904" height="32.49" fill="white" transform="translate(0 0.254883)"/>
</clipPath>
<clipPath id="clip1_2_2528">
<rect width="31" height="33" fill="white" transform="translate(1 -0.000488281)"/>
</clipPath>
</defs>
</svg>
