<svg width="39" height="40" viewBox="0 0 39 40" fill="none" xmlns="http://www.w3.org/2000/svg">
<path fill-rule="evenodd" clip-rule="evenodd" d="M38.8358 19.9287C38.8358 30.4695 30.2908 39.0144 19.7501 39.0144C9.20933 39.0144 0.664368 30.4695 0.664368 19.9287C0.664368 9.38798 9.20933 0.843018 19.7501 0.843018C30.2908 0.843018 38.8358 9.38798 38.8358 19.9287ZM20.4338 14.9327C18.5775 15.7048 14.8673 17.3029 9.30347 19.727C8.39998 20.0863 7.9267 20.4378 7.88361 20.7815C7.8108 21.3623 8.53816 21.591 9.52865 21.9025C9.66338 21.9448 9.80298 21.9887 9.94609 22.0353C10.9206 22.352 12.2314 22.7226 12.9129 22.7373C13.531 22.7507 14.221 22.4958 14.9827 21.9728C20.1812 18.4637 22.8646 16.69 23.0331 16.6518C23.152 16.6248 23.3167 16.5909 23.4283 16.6901C23.5399 16.7892 23.5289 16.9771 23.5171 17.0275C23.445 17.3347 20.5898 19.9891 19.1123 21.3628C18.6517 21.791 18.3249 22.0948 18.2581 22.1641C18.1085 22.3195 17.956 22.4665 17.8095 22.6078C16.9042 23.4805 16.2253 24.135 17.8471 25.2038C18.6264 25.7174 19.2501 26.1421 19.8723 26.5658C20.5518 27.0285 21.2295 27.49 22.1064 28.0648C22.3298 28.2113 22.5431 28.3634 22.7509 28.5115C23.5417 29.0753 24.2521 29.5817 25.1298 29.501C25.6398 29.454 26.1666 28.9745 26.4341 27.5442C27.0664 24.1642 28.3092 16.8405 28.5965 13.8226C28.6216 13.5582 28.59 13.2198 28.5645 13.0713C28.5391 12.9228 28.486 12.7111 28.2929 12.5544C28.0642 12.3689 27.7112 12.3298 27.5533 12.3325C26.8355 12.3452 25.7341 12.7281 20.4338 14.9327Z" fill="#1D1E1C"/>
</svg>
